<mxfile host="app.diagrams.net" modified="2024-01-17T14:58:22.753Z" agent="Mozilla/5.0 (Macintosh; Intel Mac OS X 10_15_7) AppleWebKit/605.1.15 (KHTML, like Gecko) Version/17.2.1 Safari/605.1.15" etag="SvHX3sWRg6J70pp-wKdw" version="22.1.18" type="github">
  <diagram id="C5RBs43oDa-KdzZeNtuy" name="Page-1">
    <mxGraphModel dx="1312" dy="889" grid="1" gridSize="10" guides="1" tooltips="1" connect="1" arrows="1" fold="1" page="1" pageScale="1" pageWidth="827" pageHeight="1169" math="0" shadow="0">
      <root>
        <mxCell id="WIyWlLk6GJQsqaUBKTNV-0" />
        <mxCell id="WIyWlLk6GJQsqaUBKTNV-1" parent="WIyWlLk6GJQsqaUBKTNV-0" />
        <mxCell id="T1GV25cz8PU00-jIa950-8" value="OnlineShop" style="swimlane;fontStyle=1;align=center;verticalAlign=top;childLayout=stackLayout;horizontal=1;startSize=26;horizontalStack=0;resizeParent=1;resizeParentMax=0;resizeLast=0;collapsible=1;marginBottom=0;whiteSpace=wrap;html=1;fontSize=16;" parent="WIyWlLk6GJQsqaUBKTNV-1" vertex="1">
          <mxGeometry x="555" y="20" width="260" height="90" as="geometry" />
        </mxCell>
        <mxCell id="T1GV25cz8PU00-jIa950-9" value="+ produkte:&amp;nbsp;MutableList&amp;lt;Produkt&amp;gt;" style="text;strokeColor=none;fillColor=none;align=left;verticalAlign=top;spacingLeft=4;spacingRight=4;overflow=hidden;rotatable=0;points=[[0,0.5],[1,0.5]];portConstraint=eastwest;whiteSpace=wrap;html=1;fontSize=16;" parent="T1GV25cz8PU00-jIa950-8" vertex="1">
          <mxGeometry y="26" width="260" height="26" as="geometry" />
        </mxCell>
        <mxCell id="T1GV25cz8PU00-jIa950-10" value="" style="line;strokeWidth=1;fillColor=none;align=left;verticalAlign=middle;spacingTop=-1;spacingLeft=3;spacingRight=3;rotatable=0;labelPosition=right;points=[];portConstraint=eastwest;strokeColor=inherit;fontSize=16;" parent="T1GV25cz8PU00-jIa950-8" vertex="1">
          <mxGeometry y="52" width="260" height="8" as="geometry" />
        </mxCell>
        <mxCell id="T1GV25cz8PU00-jIa950-11" value="+ method(type): type" style="text;strokeColor=none;fillColor=none;align=left;verticalAlign=top;spacingLeft=4;spacingRight=4;overflow=hidden;rotatable=0;points=[[0,0.5],[1,0.5]];portConstraint=eastwest;whiteSpace=wrap;html=1;fontSize=16;" parent="T1GV25cz8PU00-jIa950-8" vertex="1">
          <mxGeometry y="60" width="260" height="30" as="geometry" />
        </mxCell>
        <mxCell id="T1GV25cz8PU00-jIa950-12" value="Main.kt" style="swimlane;fontStyle=1;align=center;verticalAlign=top;childLayout=stackLayout;horizontal=1;startSize=26;horizontalStack=0;resizeParent=1;resizeParentMax=0;resizeLast=0;collapsible=1;marginBottom=0;whiteSpace=wrap;html=1;fontSize=16;" parent="WIyWlLk6GJQsqaUBKTNV-1" vertex="1">
          <mxGeometry x="925" y="170" width="160" height="194" as="geometry" />
        </mxCell>
        <mxCell id="T1GV25cz8PU00-jIa950-13" value="+ field: type" style="text;strokeColor=none;fillColor=none;align=left;verticalAlign=top;spacingLeft=4;spacingRight=4;overflow=hidden;rotatable=0;points=[[0,0.5],[1,0.5]];portConstraint=eastwest;whiteSpace=wrap;html=1;fontSize=16;" parent="T1GV25cz8PU00-jIa950-12" vertex="1">
          <mxGeometry y="26" width="160" height="34" as="geometry" />
        </mxCell>
        <mxCell id="T1GV25cz8PU00-jIa950-30" value="+ field: type" style="text;strokeColor=none;fillColor=none;align=left;verticalAlign=top;spacingLeft=4;spacingRight=4;overflow=hidden;rotatable=0;points=[[0,0.5],[1,0.5]];portConstraint=eastwest;whiteSpace=wrap;html=1;fontSize=16;" parent="T1GV25cz8PU00-jIa950-12" vertex="1">
          <mxGeometry y="60" width="160" height="30" as="geometry" />
        </mxCell>
        <mxCell id="T1GV25cz8PU00-jIa950-31" value="+ field: type" style="text;strokeColor=none;fillColor=none;align=left;verticalAlign=top;spacingLeft=4;spacingRight=4;overflow=hidden;rotatable=0;points=[[0,0.5],[1,0.5]];portConstraint=eastwest;whiteSpace=wrap;html=1;fontSize=16;" parent="T1GV25cz8PU00-jIa950-12" vertex="1">
          <mxGeometry y="90" width="160" height="30" as="geometry" />
        </mxCell>
        <mxCell id="T1GV25cz8PU00-jIa950-14" value="" style="line;strokeWidth=1;fillColor=none;align=left;verticalAlign=middle;spacingTop=-1;spacingLeft=3;spacingRight=3;rotatable=0;labelPosition=right;points=[];portConstraint=eastwest;strokeColor=inherit;fontSize=16;" parent="T1GV25cz8PU00-jIa950-12" vertex="1">
          <mxGeometry y="120" width="160" height="34" as="geometry" />
        </mxCell>
        <mxCell id="T1GV25cz8PU00-jIa950-15" value="+ method(type): type" style="text;strokeColor=none;fillColor=none;align=left;verticalAlign=top;spacingLeft=4;spacingRight=4;overflow=hidden;rotatable=0;points=[[0,0.5],[1,0.5]];portConstraint=eastwest;whiteSpace=wrap;html=1;fontSize=16;" parent="T1GV25cz8PU00-jIa950-12" vertex="1">
          <mxGeometry y="154" width="160" height="40" as="geometry" />
        </mxCell>
        <mxCell id="T1GV25cz8PU00-jIa950-74" style="edgeStyle=none;curved=1;rounded=0;orthogonalLoop=1;jettySize=auto;html=1;entryX=0.5;entryY=0;entryDx=0;entryDy=0;fontSize=12;startSize=8;endSize=8;" parent="WIyWlLk6GJQsqaUBKTNV-1" target="T1GV25cz8PU00-jIa950-54" edge="1">
          <mxGeometry relative="1" as="geometry">
            <mxPoint x="855" y="391.7227722772277" as="sourcePoint" />
          </mxGeometry>
        </mxCell>
        <mxCell id="T1GV25cz8PU00-jIa950-75" style="edgeStyle=none;curved=1;rounded=0;orthogonalLoop=1;jettySize=auto;html=1;entryX=0.5;entryY=0;entryDx=0;entryDy=0;fontSize=12;startSize=8;endSize=8;" parent="WIyWlLk6GJQsqaUBKTNV-1" source="T1GV25cz8PU00-jIa950-54" target="T1GV25cz8PU00-jIa950-62" edge="1">
          <mxGeometry relative="1" as="geometry" />
        </mxCell>
        <mxCell id="T1GV25cz8PU00-jIa950-54" value="Elektronik" style="swimlane;fontStyle=1;align=center;verticalAlign=top;childLayout=stackLayout;horizontal=1;startSize=26;horizontalStack=0;resizeParent=1;resizeParentMax=0;resizeLast=0;collapsible=1;marginBottom=0;whiteSpace=wrap;html=1;fontSize=16;" parent="WIyWlLk6GJQsqaUBKTNV-1" vertex="1">
          <mxGeometry x="965" y="470" width="450" height="148" as="geometry" />
        </mxCell>
        <mxCell id="T1GV25cz8PU00-jIa950-55" value="+ name: String&lt;br&gt;+ kundenrezension: MutableMap&amp;lt;String, Double&amp;gt;&lt;br&gt;+ Elektronik(name: String, preis: Double, produktnummer: Int, Kundenrezension: MutableMap&amp;lt;String, Double&amp;gt;)" style="text;strokeColor=none;fillColor=none;align=left;verticalAlign=top;spacingLeft=4;spacingRight=4;overflow=hidden;rotatable=0;points=[[0,0.5],[1,0.5]];portConstraint=eastwest;whiteSpace=wrap;html=1;fontSize=16;" parent="T1GV25cz8PU00-jIa950-54" vertex="1">
          <mxGeometry y="26" width="450" height="84" as="geometry" />
        </mxCell>
        <mxCell id="T1GV25cz8PU00-jIa950-56" value="" style="line;strokeWidth=1;fillColor=none;align=left;verticalAlign=middle;spacingTop=-1;spacingLeft=3;spacingRight=3;rotatable=0;labelPosition=right;points=[];portConstraint=eastwest;strokeColor=inherit;fontSize=16;" parent="T1GV25cz8PU00-jIa950-54" vertex="1">
          <mxGeometry y="110" width="450" height="8" as="geometry" />
        </mxCell>
        <mxCell id="T1GV25cz8PU00-jIa950-57" value="+ method(type): type" style="text;strokeColor=none;fillColor=none;align=left;verticalAlign=top;spacingLeft=4;spacingRight=4;overflow=hidden;rotatable=0;points=[[0,0.5],[1,0.5]];portConstraint=eastwest;whiteSpace=wrap;html=1;fontSize=16;" parent="T1GV25cz8PU00-jIa950-54" vertex="1">
          <mxGeometry y="118" width="450" height="30" as="geometry" />
        </mxCell>
        <mxCell id="T1GV25cz8PU00-jIa950-62" value="Elektroniktyp" style="swimlane;fontStyle=1;align=center;verticalAlign=top;childLayout=stackLayout;horizontal=1;startSize=26;horizontalStack=0;resizeParent=1;resizeParentMax=0;resizeLast=0;collapsible=1;marginBottom=0;whiteSpace=wrap;html=1;fontSize=16;" parent="WIyWlLk6GJQsqaUBKTNV-1" vertex="1">
          <mxGeometry x="1075" y="680" width="535" height="148" as="geometry" />
        </mxCell>
        <mxCell id="T1GV25cz8PU00-jIa950-63" value="+ typ: String&lt;br&gt;+ garantie: Int&lt;br&gt;+ Elektroniktyp(name: String, preis: Double, produktnummer: Int, Kundenrezension: MutableMap&amp;lt;String, Double&amp;gt;, typ: String,)" style="text;strokeColor=none;fillColor=none;align=left;verticalAlign=top;spacingLeft=4;spacingRight=4;overflow=hidden;rotatable=0;points=[[0,0.5],[1,0.5]];portConstraint=eastwest;whiteSpace=wrap;html=1;fontSize=16;" parent="T1GV25cz8PU00-jIa950-62" vertex="1">
          <mxGeometry y="26" width="535" height="84" as="geometry" />
        </mxCell>
        <mxCell id="T1GV25cz8PU00-jIa950-64" value="" style="line;strokeWidth=1;fillColor=none;align=left;verticalAlign=middle;spacingTop=-1;spacingLeft=3;spacingRight=3;rotatable=0;labelPosition=right;points=[];portConstraint=eastwest;strokeColor=inherit;fontSize=16;" parent="T1GV25cz8PU00-jIa950-62" vertex="1">
          <mxGeometry y="110" width="535" height="8" as="geometry" />
        </mxCell>
        <mxCell id="T1GV25cz8PU00-jIa950-65" value="+ method(type): type" style="text;strokeColor=none;fillColor=none;align=left;verticalAlign=top;spacingLeft=4;spacingRight=4;overflow=hidden;rotatable=0;points=[[0,0.5],[1,0.5]];portConstraint=eastwest;whiteSpace=wrap;html=1;fontSize=16;" parent="T1GV25cz8PU00-jIa950-62" vertex="1">
          <mxGeometry y="118" width="535" height="30" as="geometry" />
        </mxCell>
        <mxCell id="T1GV25cz8PU00-jIa950-66" value="Test.kt" style="swimlane;fontStyle=1;align=center;verticalAlign=top;childLayout=stackLayout;horizontal=1;startSize=26;horizontalStack=0;resizeParent=1;resizeParentMax=0;resizeLast=0;collapsible=1;marginBottom=0;whiteSpace=wrap;html=1;fontSize=16;" parent="WIyWlLk6GJQsqaUBKTNV-1" vertex="1">
          <mxGeometry x="1132" y="170" width="160" height="194" as="geometry" />
        </mxCell>
        <mxCell id="T1GV25cz8PU00-jIa950-67" value="+ field: type" style="text;strokeColor=none;fillColor=none;align=left;verticalAlign=top;spacingLeft=4;spacingRight=4;overflow=hidden;rotatable=0;points=[[0,0.5],[1,0.5]];portConstraint=eastwest;whiteSpace=wrap;html=1;fontSize=16;" parent="T1GV25cz8PU00-jIa950-66" vertex="1">
          <mxGeometry y="26" width="160" height="34" as="geometry" />
        </mxCell>
        <mxCell id="T1GV25cz8PU00-jIa950-68" value="+ field: type" style="text;strokeColor=none;fillColor=none;align=left;verticalAlign=top;spacingLeft=4;spacingRight=4;overflow=hidden;rotatable=0;points=[[0,0.5],[1,0.5]];portConstraint=eastwest;whiteSpace=wrap;html=1;fontSize=16;" parent="T1GV25cz8PU00-jIa950-66" vertex="1">
          <mxGeometry y="60" width="160" height="30" as="geometry" />
        </mxCell>
        <mxCell id="T1GV25cz8PU00-jIa950-69" value="+ field: type" style="text;strokeColor=none;fillColor=none;align=left;verticalAlign=top;spacingLeft=4;spacingRight=4;overflow=hidden;rotatable=0;points=[[0,0.5],[1,0.5]];portConstraint=eastwest;whiteSpace=wrap;html=1;fontSize=16;" parent="T1GV25cz8PU00-jIa950-66" vertex="1">
          <mxGeometry y="90" width="160" height="30" as="geometry" />
        </mxCell>
        <mxCell id="T1GV25cz8PU00-jIa950-70" value="" style="line;strokeWidth=1;fillColor=none;align=left;verticalAlign=middle;spacingTop=-1;spacingLeft=3;spacingRight=3;rotatable=0;labelPosition=right;points=[];portConstraint=eastwest;strokeColor=inherit;fontSize=16;" parent="T1GV25cz8PU00-jIa950-66" vertex="1">
          <mxGeometry y="120" width="160" height="34" as="geometry" />
        </mxCell>
        <mxCell id="T1GV25cz8PU00-jIa950-71" value="+ method(type): type" style="text;strokeColor=none;fillColor=none;align=left;verticalAlign=top;spacingLeft=4;spacingRight=4;overflow=hidden;rotatable=0;points=[[0,0.5],[1,0.5]];portConstraint=eastwest;whiteSpace=wrap;html=1;fontSize=16;" parent="T1GV25cz8PU00-jIa950-66" vertex="1">
          <mxGeometry y="154" width="160" height="40" as="geometry" />
        </mxCell>
        <mxCell id="dB1WfCZlKLVQ1_dV9HRf-0" value="Buch" style="swimlane;fontStyle=1;align=center;verticalAlign=top;childLayout=stackLayout;horizontal=1;startSize=26;horizontalStack=0;resizeParent=1;resizeParentMax=0;resizeLast=0;collapsible=1;marginBottom=0;whiteSpace=wrap;html=1;fontSize=16;" vertex="1" parent="WIyWlLk6GJQsqaUBKTNV-1">
          <mxGeometry x="441.25" y="470" width="415" height="200" as="geometry" />
        </mxCell>
        <mxCell id="dB1WfCZlKLVQ1_dV9HRf-1" value="+ genre: String&lt;br&gt;+ autor: String&lt;br style=&quot;border-color: var(--border-color);&quot;&gt;" style="text;strokeColor=none;fillColor=none;align=left;verticalAlign=top;spacingLeft=4;spacingRight=4;overflow=hidden;rotatable=0;points=[[0,0.5],[1,0.5]];portConstraint=eastwest;whiteSpace=wrap;html=1;fontSize=16;" vertex="1" parent="dB1WfCZlKLVQ1_dV9HRf-0">
          <mxGeometry y="26" width="415" height="54" as="geometry" />
        </mxCell>
        <mxCell id="dB1WfCZlKLVQ1_dV9HRf-2" value="" style="line;strokeWidth=1;fillColor=none;align=left;verticalAlign=middle;spacingTop=-1;spacingLeft=3;spacingRight=3;rotatable=0;labelPosition=right;points=[];portConstraint=eastwest;strokeColor=inherit;fontSize=16;" vertex="1" parent="dB1WfCZlKLVQ1_dV9HRf-0">
          <mxGeometry y="80" width="415" height="8" as="geometry" />
        </mxCell>
        <mxCell id="dB1WfCZlKLVQ1_dV9HRf-3" value="+Buch(name: String, preis Double, produktnummer: Int, kundenrenzension: MutableMap&amp;lt;String, Double&amp;gt;, verfuegbar: Boolean,genre: String, autor: String)&lt;br&gt;&lt;br&gt;+ method(type): type" style="text;strokeColor=none;fillColor=none;align=left;verticalAlign=top;spacingLeft=4;spacingRight=4;overflow=hidden;rotatable=0;points=[[0,0.5],[1,0.5]];portConstraint=eastwest;whiteSpace=wrap;html=1;fontSize=16;" vertex="1" parent="dB1WfCZlKLVQ1_dV9HRf-0">
          <mxGeometry y="88" width="415" height="112" as="geometry" />
        </mxCell>
        <mxCell id="dB1WfCZlKLVQ1_dV9HRf-4" value="Roman" style="swimlane;fontStyle=1;align=center;verticalAlign=top;childLayout=stackLayout;horizontal=1;startSize=26;horizontalStack=0;resizeParent=1;resizeParentMax=0;resizeLast=0;collapsible=1;marginBottom=0;whiteSpace=wrap;html=1;fontSize=16;" vertex="1" parent="WIyWlLk6GJQsqaUBKTNV-1">
          <mxGeometry x="390" y="760" width="545" height="150" as="geometry" />
        </mxCell>
        <mxCell id="dB1WfCZlKLVQ1_dV9HRf-5" value="+ beschreibung: String&lt;br&gt;" style="text;strokeColor=none;fillColor=none;align=left;verticalAlign=top;spacingLeft=4;spacingRight=4;overflow=hidden;rotatable=0;points=[[0,0.5],[1,0.5]];portConstraint=eastwest;whiteSpace=wrap;html=1;fontSize=16;" vertex="1" parent="dB1WfCZlKLVQ1_dV9HRf-4">
          <mxGeometry y="26" width="545" height="34" as="geometry" />
        </mxCell>
        <mxCell id="dB1WfCZlKLVQ1_dV9HRf-6" value="" style="line;strokeWidth=1;fillColor=none;align=left;verticalAlign=middle;spacingTop=-1;spacingLeft=3;spacingRight=3;rotatable=0;labelPosition=right;points=[];portConstraint=eastwest;strokeColor=inherit;fontSize=16;" vertex="1" parent="dB1WfCZlKLVQ1_dV9HRf-4">
          <mxGeometry y="60" width="545" height="8" as="geometry" />
        </mxCell>
        <mxCell id="dB1WfCZlKLVQ1_dV9HRf-7" value="+Roman(name: String, preis Double, produktnummer: Int, kundenrenzension: MutableMap&amp;lt;String, Double&amp;gt;, verfuegbar: Boolean, autor: String, beschreibung: String)&lt;br&gt;&lt;br&gt;+ method(type): type" style="text;strokeColor=none;fillColor=none;align=left;verticalAlign=top;spacingLeft=4;spacingRight=4;overflow=hidden;rotatable=0;points=[[0,0.5],[1,0.5]];portConstraint=eastwest;whiteSpace=wrap;html=1;fontSize=16;" vertex="1" parent="dB1WfCZlKLVQ1_dV9HRf-4">
          <mxGeometry y="68" width="545" height="82" as="geometry" />
        </mxCell>
        <mxCell id="dB1WfCZlKLVQ1_dV9HRf-12" value="Produkt" style="swimlane;fontStyle=1;align=center;verticalAlign=top;childLayout=stackLayout;horizontal=1;startSize=26;horizontalStack=0;resizeParent=1;resizeParentMax=0;resizeLast=0;collapsible=1;marginBottom=0;whiteSpace=wrap;html=1;fontSize=16;" vertex="1" parent="WIyWlLk6GJQsqaUBKTNV-1">
          <mxGeometry x="440" y="180" width="417.5" height="240" as="geometry" />
        </mxCell>
        <mxCell id="dB1WfCZlKLVQ1_dV9HRf-13" value="+ name: String&lt;br&gt;+ preis: Double&lt;br&gt;+ produktnummer: &amp;nbsp;Int&lt;br&gt;+ kundenrezensionen: MutableMap&amp;lt;String,Double&amp;gt;,&lt;br&gt;+ verfuegbar: Boolean" style="text;strokeColor=none;fillColor=none;align=left;verticalAlign=top;spacingLeft=4;spacingRight=4;overflow=hidden;rotatable=0;points=[[0,0.5],[1,0.5]];portConstraint=eastwest;whiteSpace=wrap;html=1;fontSize=16;" vertex="1" parent="dB1WfCZlKLVQ1_dV9HRf-12">
          <mxGeometry y="26" width="417.5" height="104" as="geometry" />
        </mxCell>
        <mxCell id="dB1WfCZlKLVQ1_dV9HRf-14" value="" style="line;strokeWidth=1;fillColor=none;align=left;verticalAlign=middle;spacingTop=-1;spacingLeft=3;spacingRight=3;rotatable=0;labelPosition=right;points=[];portConstraint=eastwest;strokeColor=inherit;fontSize=16;" vertex="1" parent="dB1WfCZlKLVQ1_dV9HRf-12">
          <mxGeometry y="130" width="417.5" height="8" as="geometry" />
        </mxCell>
        <mxCell id="dB1WfCZlKLVQ1_dV9HRf-15" value="+Produkt(name: String, preis Double, produktnummer: Int, kundenrenzension: MutableMap&amp;lt;String, Double&amp;gt;, verfuegbar: Boolean)&lt;br&gt;&lt;br&gt;+ method(type): type" style="text;strokeColor=none;fillColor=none;align=left;verticalAlign=top;spacingLeft=4;spacingRight=4;overflow=hidden;rotatable=0;points=[[0,0.5],[1,0.5]];portConstraint=eastwest;whiteSpace=wrap;html=1;fontSize=16;" vertex="1" parent="dB1WfCZlKLVQ1_dV9HRf-12">
          <mxGeometry y="138" width="417.5" height="102" as="geometry" />
        </mxCell>
      </root>
    </mxGraphModel>
  </diagram>
</mxfile>
